# xmcd CD database file
#
# Track frame offsets:
#	150
#	16047
#	33688
#	46899
#	68419
#	86322
#	101019
#	118303
#	140563
#	158743
#
# Disc length: 2345 seconds
#
# Revision: 0
# Processed by: cddbd v1.5.2PL0 Copyright (c) Steve Scherf et al.
# Submitted via: CDex 1.72
#
DISCID=7909270a
DTITLE=Swift, Thom [CDN-13-Cty.flk) - The Fortunate Few
DYEAR=2013
DGENRE=Country
TTITLE0=200 Miles
TTITLE1=The Fortunate Few
TTITLE2=Sweet Thing
TTITLE3=River John
TTITLE4=Runaway Train
TTITLE5=You
TTITLE6=Circle of Boots
TTITLE7=Walk
TTITLE8=Come Undone
TTITLE9=Thom Swift - Forever
EXTD=YEAR: 2013
EXTT0=
EXTT1=
EXTT2=
EXTT3=
EXTT4=
EXTT5=
EXTT6=
EXTT7=
EXTT8=
EXTT9=
PLAYORDER=
